#define left_width 16
#define left_height 16
static unsigned char left_bits[] = {
   0x00, 0x00, 0x00, 0x00, 0xfc, 0x1f, 0xfc, 0x1f, 0xfc, 0x1f, 0x0c, 0x18,
   0xfc, 0x1f, 0x0c, 0x18, 0xfc, 0x1f, 0x0c, 0x18, 0xfc, 0x1f, 0x0c, 0x18,
   0xfc, 0x1f, 0x00, 0x00, 0x00, 0x00, 0x00, 0x00};
