#define right_width 16
#define right_height 16
static unsigned char right_bits[] = {
   0x00, 0x00, 0x00, 0x00, 0xfc, 0x1f, 0xfc, 0x1f, 0xfc, 0x1f, 0xfc, 0x1f,
   0x3c, 0x10, 0x3c, 0x10, 0x3c, 0x10, 0x3c, 0x10, 0x3c, 0x10, 0x3c, 0x10,
   0xfc, 0x1f, 0x00, 0x00, 0x00, 0x00, 0x00, 0x00};
